<?xml version="1.0" standalone="no"?><!DOCTYPE svg PUBLIC "-//W3C//DTD SVG 1.1//EN" "http://www.w3.org/Graphics/SVG/1.1/DTD/svg11.dtd"><svg width="100%" height="100%" viewBox="0 0 480 480" version="1.1" xmlns="http://www.w3.org/2000/svg" xmlns:xlink="http://www.w3.org/1999/xlink" xml:space="preserve" style="fill-rule:evenodd;clip-rule:evenodd;stroke-linecap:round;stroke-linejoin:round;stroke-miterlimit:1.41421;"><g id="Layer1"><path d="M240.005,111.407l-34.266,6.89l-7.68,0" style="fill:none;stroke-width:1.5px;stroke:#326281;"/><path d="M260.177,117.124l20.966,18.231l9.141,0" style="fill:none;stroke-width:1.5px;stroke:#326281;"/><path d="M237.305,153.849l-29.064,7.723l-9.006,0" style="fill:none;stroke-width:1.5px;stroke:#326281;"/><path d="M263.554,178.578l17.692,3.494l7.74,0" style="fill:none;stroke-width:1.5px;stroke:#326281;"/><path d="M249.214,186.526l-41.285,19.189l-12.003,0" style="fill:none;stroke-width:1.5px;stroke:#326281;"/><path d="M313.542,240.34l-9.623,0l-27.804,5.637" style="fill:none;stroke-width:1.5px;stroke:#326281;"/><path d="M387.537,211.394l-10.668,0l-89.328,9.175" style="fill:none;stroke-width:1.5px;stroke:#326281;"/><path d="M303.919,290.11l-8.611,0l-43.105,-58.484" style="fill:none;stroke-width:1.5px;stroke:#326281;"/><path d="M232.285,231.626l-29.79,74.907l-11.009,0" style="fill:none;stroke-width:1.5px;stroke:#326281;"/><path d="M160.888,262.136l8.559,0l42.147,-18.978" style="fill:none;stroke-width:1.5px;stroke:#326281;"/><path d="M116.971,211.394l9.027,0l89.725,12.634" style="fill:none;stroke-width:1.5px;stroke:#326281;"/><path d="M303.919,356.671l-9.091,0l-24.347,-13.153" style="fill:none;stroke-width:1.5px;stroke:#326281;"/><path d="M191.486,364.309l8.977,0l24.159,-20.791" style="fill:none;stroke-width:1.5px;stroke:#326281;"/><path d="M166.353,431.658l9.126,0l52.641,9.076" style="fill:none;stroke-width:1.5px;stroke:#326281;"/><path d="M303.919,433.375l-9.091,0l-22.364,12.171" style="fill:none;stroke-width:1.5px;stroke:#326281;"/><path d="M173.967,41.212l32.843,51.366" style="fill:none;stroke-width:1.5px;stroke:#326281;"/><path d="M92.964,57.46l97.424,35.118" style="fill:none;stroke-width:1.5px;stroke:#326281;"/><path d="M298.939,45.383l-8.641,0l-26.744,47.195" style="fill:none;stroke-width:1.5px;stroke:#326281;"/><path d="M378.339,66.895l-8.57,0l-86.272,33.559" style="fill:none;stroke-width:1.5px;stroke:#326281;"/><path d="M456.982,96.188l-9.967,0l-89.593,7.736" style="fill:none;stroke-width:1.5px;stroke:#326281;"/><path d="M373.652,134.733l-6.776,0l-56.501,-27.63" style="fill:none;stroke-width:1.5px;stroke:#326281;"/><path d="M236.429,63.44l-42.123,-49.451l0,-6.898" style="fill:none;stroke-width:1.5px;stroke:#326281;"/><path d="M298.939,7.091l0,5.694l-54.366,70.89" style="fill:none;stroke-width:1.5px;stroke:#326281;"/><path d="M67.237,115.114l8.382,0l52.032,-14.681" style="fill:none;stroke-width:1.5px;stroke:#326281;"/><path d="M97.444,137.277l0,-8.305l59.567,-28.539" style="fill:none;stroke-width:1.5px;stroke:#326281;"/></g></svg>