<?xml version="1.0" standalone="no"?><!DOCTYPE svg PUBLIC "-//W3C//DTD SVG 1.1//EN" "http://www.w3.org/Graphics/SVG/1.1/DTD/svg11.dtd"><svg width="100%" height="100%" viewBox="0 0 480 288" version="1.1" xmlns="http://www.w3.org/2000/svg" xmlns:xlink="http://www.w3.org/1999/xlink" xml:space="preserve" style="fill-rule:evenodd;clip-rule:evenodd;stroke-linecap:round;stroke-linejoin:round;stroke-miterlimit:1.41421;"><g id="Layer1"><path d="M154.115,111.053l-81.925,-42.607l0,-10.641" style="fill:none;stroke-width:3px;stroke:#326181;"/><path d="M205.283,115.433l-12.227,-51.953l-8.91,0" style="fill:none;stroke-width:3px;stroke:#326181;"/><path d="M187.565,120.065l-35.348,24.211l0,11.461" style="fill:none;stroke-width:3px;stroke:#326181;"/><path d="M114.708,111.053l-20.749,29.635l-10.607,0" style="fill:none;stroke-width:3px;stroke:#326181;"/><path d="M245.443,111.053l66.249,-88.039l0,-10.24" style="fill:none;stroke-width:3px;stroke:#326181;"/><path d="M240.06,91.727l-47.004,-65.34l0,-24.61" style="fill:none;stroke-width:3px;stroke:#326181;"/><path d="M267.888,128.562l72.536,-31.441l0,-9.728" style="fill:none;stroke-width:3px;stroke:#326181;"/><path d="M325.353,136.693l71.958,-25.64l9.905,0" style="fill:none;stroke-width:3px;stroke:#326181;"/><path d="M291.351,140.688l29.475,30.415l0,8.483" style="fill:none;stroke-width:3px;stroke:#326181;"/><path d="M355.513,149.677l50.67,42.852l10.096,0" style="fill:none;stroke-width:3px;stroke:#326181;"/><path d="M267.888,149.677l23.463,107.483l13.199,0" style="fill:none;stroke-width:3px;stroke:#326181;"/><path d="M245.535,155.737l-35.464,73.887l-9.437,0" style="fill:none;stroke-width:3px;stroke:#326181;"/><path d="M237.442,195.687l8.093,78.802l0,11.478" style="fill:none;stroke-width:3px;stroke:#326181;"/></g></svg>